<svg version="1.0" xmlns="http://www.w3.org/2000/svg" viewBox="0 0 200.000000 200.000000" preserveAspectRatio="xMidYMid meet" style="width: 100%; height: auto;"><g transform="translate(0.000000,200.000000) scale(0.100000,-0.100000)" fill="currentColor" stroke="none"><path d="M960 1723 c-8 -3 -168 -97 -355 -208 -187 -112 -354 -211 -372 -221
-149 -87 -213 -126 -213 -129 0 -4 68 -45 179 -110 9 -5 58 -35 109 -65 l92
-54 0 -122 c0 -117 1 -124 26 -153 35 -42 132 -87 239 -112 112 -25 425 -37
558 -20 183 22 325 74 372 135 23 31 25 40 25 152 l0 120 190 112 c105 62 190
115 190 117 0 2 -42 28 -92 57 -51 30 -262 155 -468 278 -319 190 -382 224
-420 226 -25 2 -52 1 -60 -3z m113 -34 c37 -19 861 -511 870 -519 7 -7 -300
-200 -317 -200 -3 0 -6 33 -6 73 0 125 -41 161 -244 212 -268 68 -568 58 -826
-26 -121 -40 -150 -76 -150 -189 0 -38 -2 -70 -4 -70 -14 0 -199 115 -203 126
-3 8 -9 12 -13 9 -8 -5 -110 51 -110 60 0 2 26 18 58 37 31 18 65 38 74 43 9
6 185 110 389 233 334 199 377 222 416 222 25 0 54 -5 66 -11z m79 -420 c120
-13 302 -57 371 -89 74 -35 77 -47 77 -278 0 -199 0 -199 -25 -226 -86 -93
-413 -153 -694 -128 -227 20 -372 62 -436 126 l-25 25 0 207 c0 191 1 208 20
234 24 34 92 61 235 96 175 41 310 51 477 33z"></path><path d="M835 870 c-229 -25 -387 -90 -356 -148 68 -127 673 -171 951 -69 81
29 112 54 108 85 -8 73 -204 129 -478 137 -80 2 -181 0 -225 -5z m491 -48
c103 -22 187 -60 192 -85 3 -13 -12 -25 -52 -43 -224 -102 -767 -93 -946 17
l-34 21 29 24 c37 29 136 61 250 79 130 21 439 13 561 -13z"></path><path d="M180 739 c0 -5 -6 -9 -14 -9 -24 0 -56 -50 -56 -87 0 -23 8 -42 25
-59 14 -14 25 -28 25 -32 0 -4 -23 -64 -52 -135 -28 -70 -49 -129 -47 -131 2
-3 40 -8 83 -12 l79 -7 -6 64 c-20 205 -20 229 -3 229 48 0 82 81 56 131 -11
20 -90 63 -90 48z"></path></g></svg>