<svg version="1.0" xmlns="http://www.w3.org/2000/svg" viewBox="0 0 200.000000 204.000000" preserveAspectRatio="xMidYMid meet" style="width: 100%; height: auto;"><g transform="translate(0.000000,204.000000) scale(0.100000,-0.100000)" fill="currentColor" stroke="none"><path d="M445 1706 c5 -109 4 -155 -4 -160 -14 -9 -15 -63 -1 -71 18 -11 11
-37 -15 -57 -31 -24 -32 -51 -3 -77 21 -20 21 -21 3 -41 -17 -18 -17 -25 -6
-56 19 -52 7 -96 -53 -199 -57 -99 -81 -147 -100 -203 l-13 -37 -58 4 c-35 2
-55 -1 -51 -7 3 -5 54 -12 113 -16 176 -11 171 -9 177 -70 3 -28 7 -106 10
-174 l5 -122 -63 0 c-90 0 -247 -12 -241 -18 3 -3 72 -5 154 -3 107 2 154 -1
169 -10 16 -10 28 -10 61 1 39 13 42 12 65 -13 30 -33 49 -34 76 -5 17 19 24
21 40 10 24 -14 62 -16 76 -2 14 14 97 -14 168 -58 64 -40 145 -80 210 -103
38 -14 38 -14 34 -61 -3 -27 -2 -48 2 -48 8 0 14 48 26 196 l6 81 170 7 c93 4
173 4 177 1 3 -4 7 -69 9 -146 2 -88 7 -139 14 -139 7 0 8 47 3 149 -5 104 -3
151 4 155 14 9 14 48 -1 80 -10 23 -8 29 15 50 32 30 35 61 7 78 -24 16 -25
26 -3 50 14 16 15 24 4 53 -18 50 -5 98 52 192 27 46 64 118 83 160 l34 78 50
1 c28 1 53 3 56 7 8 7 -53 15 -178 22 l-106 7 -6 56 c-3 32 -7 111 -8 177 l-3
120 145 3 c84 1 149 7 155 13 7 7 -38 10 -150 8 -113 -2 -167 1 -183 10 -19
10 -27 9 -52 -6 -30 -17 -31 -17 -56 10 -30 33 -66 35 -87 5 -14 -22 -15 -22
-34 -5 -23 20 -46 22 -72 5 -27 -17 -85 3 -196 68 -49 29 -121 65 -159 80
l-68 27 6 48 c4 29 3 49 -3 49 -5 0 -12 -35 -15 -77 -17 -214 -15 -203 -44
-204 -15 -1 -93 -4 -174 -8 l-146 -6 -6 35 c-3 19 -6 86 -6 148 0 75 -4 112
-11 112 -8 0 -9 -44 -4 -154z m528 -16 c43 -21 100 -53 127 -70 l49 -32 -22
-30 c-21 -28 -22 -39 -20 -176 1 -81 3 -158 5 -171 3 -22 -4 -26 -72 -48 -213
-68 -258 -77 -407 -77 -128 -1 -144 1 -169 20 -55 41 -41 60 56 74 104 15 120
19 120 30 0 6 -34 10 -77 10 -86 0 -128 15 -128 45 0 27 38 43 117 51 38 4 68
11 68 15 0 5 -33 9 -74 9 -89 0 -126 12 -126 39 0 28 25 39 114 52 80 12 102
29 39 29 -90 0 -152 40 -117 74 11 11 34 16 77 16 34 0 119 3 190 7 117 6 127
8 122 24 -4 10 -3 50 1 89 8 82 1 81 127 20z m477 -126 c6 -14 15 -57 21 -95
13 -77 29 -92 29 -26 0 63 17 115 41 122 38 12 44 -9 50 -188 4 -95 7 -181 8
-192 1 -18 7 -20 75 -17 107 5 111 1 76 -81 -15 -37 -49 -103 -75 -147 l-47
-81 -27 18 c-22 16 -50 18 -201 18 l-174 1 -28 87 c-66 207 -73 243 -73 397 0
123 3 150 18 173 17 27 50 36 62 18 3 -5 10 -45 15 -88 6 -42 13 -85 16 -95
10 -34 19 -18 19 35 1 123 23 176 64 150 18 -11 39 -87 40 -145 1 -21 6 -38
11 -38 6 0 10 31 10 74 0 41 4 86 10 100 13 35 47 35 60 0z m-200 -16 c0 -7
-5 -20 -10 -28 -8 -12 -10 -9 -10 13 0 15 5 27 10 27 6 0 10 -6 10 -12z m243
-23 c-7 -21 -13 -19 -13 6 0 11 4 18 10 14 5 -3 7 -12 3 -20z m-993 -81 c0 -2
-7 -4 -15 -4 -8 0 -15 4 -15 10 0 5 7 7 15 4 8 -4 15 -8 15 -10z m-15 -244
c-3 -5 -13 -10 -21 -10 -8 0 -14 5 -14 10 0 6 9 10 21 10 11 0 17 -4 14 -10z
m645 -44 c0 -8 18 -72 39 -143 22 -70 39 -129 37 -130 -3 -3 -238 -75 -263
-81 -15 -3 -23 0 -23 10 0 7 -18 71 -40 142 -22 70 -40 129 -40 131 0 2 21 8
48 14 26 6 85 24 132 40 99 34 110 36 110 17z m-496 -88 c72 1 144 3 160 4 29
3 30 1 58 -87 68 -217 72 -241 73 -401 0 -136 -2 -154 -19 -173 -20 -22 -51
-28 -61 -12 -3 6 -10 47 -16 92 -14 117 -25 126 -33 28 -8 -91 -22 -132 -49
-137 -24 -5 -44 47 -53 132 -4 37 -9 64 -12 62 -2 -3 -6 -39 -8 -79 -4 -84
-17 -127 -38 -127 -24 0 -38 28 -54 115 -9 47 -20 85 -24 85 -4 0 -8 -23 -8
-50 0 -66 -22 -120 -49 -120 -33 0 -41 32 -41 167 0 70 -3 151 -6 178 l-6 50
-86 3 c-48 2 -88 5 -90 7 -6 5 74 172 115 240 l36 61 41 -20 c34 -17 58 -20
170 -18z m935 -202 c79 -26 61 -69 -32 -81 -156 -18 -169 -30 -44 -37 93 -6
127 -19 127 -48 0 -28 -32 -41 -116 -47 -90 -7 -98 -23 -11 -23 83 0 137 -16
137 -39 0 -30 -24 -42 -110 -55 -81 -13 -115 -26 -68 -26 96 0 177 -40 149
-74 -12 -14 -115 -24 -281 -28 -104 -2 -123 -5 -114 -20 11 -18 -7 -158 -20
-158 -17 0 -180 80 -237 116 l-45 29 20 35 c18 30 21 52 21 160 0 69 -3 143
-7 165 l-8 41 98 31 c134 44 210 62 294 72 84 9 198 3 247 -13z m31 -106 c0
-6 -11 -8 -27 -4 -40 10 -41 14 -5 14 18 0 32 -5 32 -10z m-20 -240 c0 -5 -8
-10 -17 -10 -15 0 -16 2 -3 10 19 12 20 12 20 0z m-1010 -80 c0 -11 -4 -20 -9
-20 -5 0 -7 9 -4 20 3 11 7 20 9 20 2 0 4 -9 4 -20z m246 -38 c-12 -11 -17 7
-9 34 l8 29 3 -28 c2 -16 1 -31 -2 -35z"></path><path d="M624 1720 c0 -74 1 -105 3 -67 2 37 2 97 0 135 -2 37 -3 6 -3 -68z"></path><path d="M553 1800 c0 -25 2 -35 4 -22 2 12 2 32 0 45 -2 12 -4 2 -4 -23z"></path><path d="M754 1750 c0 -52 1 -74 3 -47 2 26 2 68 0 95 -2 26 -3 4 -3 -48z"></path><path d="M1280 1832 c0 -5 46 -40 103 -79 125 -85 127 -87 127 -75 0 6 -48 43
-107 84 -120 82 -123 83 -123 70z"></path><path d="M1120 1803 c0 -12 241 -165 248 -159 7 8 14 3 -120 90 -118 77 -128
82 -128 69z"></path><path d="M1259 343 l-24 -28 28 24 c25 23 32 31 24 31 -2 0 -14 -12 -28 -27z"></path><path d="M1414 318 l-19 -23 23 19 c21 18 27 26 19 26 -2 0 -12 -10 -23 -22z"></path><path d="M1445 258 l-40 -43 43 40 c39 36 47 45 39 45 -2 0 -21 -19 -42 -42z"></path><path d="M580 269 c0 -13 119 -47 225 -64 112 -18 105 -17 105 -6 0 5 -21 12
-47 15 -72 11 -182 34 -235 50 -27 8 -48 10 -48 5z"></path><path d="M1259 263 c-13 -16 -12 -17 4 -4 16 13 21 21 13 21 -2 0 -10 -8 -17
-17z"></path><path d="M1490 213 l-55 -58 58 55 c53 50 62 60 54 60 -1 0 -27 -26 -57 -57z"></path><path d="M1259 163 c-13 -16 -12 -17 4 -4 16 13 21 21 13 21 -2 0 -10 -8 -17
-17z"></path><path d="M1339 143 l-24 -28 28 24 c15 14 27 26 27 28 0 8 -8 1 -31 -24z"></path></g></svg>