<svg version="1.0" xmlns="http://www.w3.org/2000/svg" viewBox="0 0 200.000000 200.000000" preserveAspectRatio="xMidYMid meet" style="width: 100%; height: auto;"><g transform="translate(0.000000,200.000000) scale(0.100000,-0.100000)" fill="currentColor" stroke="none"><path d="M884 1808 c-199 -22 -344 -221 -318 -437 22 -185 123 -322 356 -480
186 -126 258 -227 258 -362 0 -149 -129 -245 -281 -209 -65 16 -129 76 -151
141 -17 48 -7 46 -126 33 l-62 -7 6 -36 c22 -123 105 -231 219 -287 54 -26 69
-29 160 -29 88 0 107 4 160 28 87 41 131 73 172 131 104 145 109 370 11 517
-44 65 -101 116 -273 244 -132 98 -236 205 -260 268 -25 66 -18 162 16 213 76
114 264 131 357 31 13 -14 32 -51 42 -83 10 -33 22 -59 26 -59 5 1 44 9 86 19
l76 18 -15 51 c-61 207 -237 320 -459 295z"></path><path d="M886 1527 c-25 -21 -27 -25 -15 -50 13 -28 33 -39 23 -12 -4 10 0 15
14 15 12 0 24 5 27 11 4 6 14 8 22 5 9 -4 13 -1 10 6 -2 7 -12 12 -22 10 -9
-2 -14 1 -11 6 3 5 0 15 -7 20 -9 8 -20 5 -41 -11z"></path><path d="M1031 1501 c-11 -7 -9 -11 9 -21 25 -14 33 -9 24 14 -7 18 -13 19
-33 7z"></path><path d="M1011 1467 c-18 -18 -13 -47 9 -47 16 0 20 -7 20 -37 0 -35 1 -36 14
-18 7 11 16 34 20 50 5 26 2 32 -23 46 -21 12 -32 14 -40 6z"></path><path d="M916 1432 c-2 -4 -2 -27 1 -49 6 -43 8 -43 42 0 12 15 11 20 -4 37
-19 21 -31 25 -39 12z"></path><path d="M376 1353 c-99 -33 -171 -96 -216 -187 -78 -158 -59 -314 52 -440
132 -151 335 -192 522 -107 55 25 196 133 196 150 0 4 -33 30 -74 59 l-73 51
-22 -23 c-30 -32 -105 -71 -175 -91 -118 -34 -223 3 -270 97 -68 136 -2 282
146 319 47 13 49 15 44 41 -3 16 -11 57 -18 93 -6 36 -16 65 -22 65 -6 -1 -46
-13 -90 -27z"></path><path d="M1287 1355 c-85 -22 -161 -62 -225 -121 -31 -28 -55 -54 -52 -56 3
-3 37 -29 75 -60 l70 -55 50 43 c147 130 324 121 398 -20 27 -52 30 -156 5
-202 -26 -48 -78 -93 -132 -113 -57 -21 -56 -16 -33 -137 l12 -62 58 18 c204
64 332 277 283 470 -32 124 -110 220 -224 273 -79 37 -191 46 -285 22z"></path><path d="M1430 1099 c0 -7 -11 -8 -30 -4 -23 5 -30 3 -30 -8 0 -8 -10 -17 -21
-20 -14 -4 -20 -11 -16 -21 4 -9 -1 -20 -11 -25 -15 -9 -15 -13 -4 -32 11 -17
11 -23 2 -29 -15 -9 -4 -30 16 -30 8 0 14 -9 14 -20 0 -13 7 -20 18 -20 10 0
22 -3 26 -7 4 -4 23 -8 43 -9 27 -1 37 4 41 18 3 13 10 17 23 13 18 -6 24 4
20 28 -1 4 6 15 15 24 15 15 15 18 -2 30 -16 11 -16 15 -5 22 17 11 7 41 -13
41 -7 0 -13 8 -12 18 1 11 -5 16 -19 15 -11 -1 -24 5 -28 13 -9 16 -27 19 -27
3z m32 -86 c23 -21 23 -36 -2 -58 -27 -24 -68 -13 -76 22 -12 45 41 70 78 36z"></path><path d="M435 1080 c-3 -6 1 -7 9 -4 18 7 21 14 7 14 -6 0 -13 -4 -16 -10z"></path><path d="M440 1006 c0 -2 8 -10 18 -17 15 -13 16 -12 3 4 -13 16 -21 21 -21
13z"></path><path d="M608 1003 c7 -3 16 -2 19 1 4 3 -2 6 -13 5 -11 0 -14 -3 -6 -6z"></path><path d="M500 975 c0 -8 5 -15 10 -15 6 0 10 7 10 15 0 8 -4 15 -10 15 -5 0
-10 -7 -10 -15z"></path><path d="M373 973 c9 -2 25 -2 35 0 9 3 1 5 -18 5 -19 0 -27 -2 -17 -5z"></path><path d="M430 966 c0 -2 7 -7 16 -10 8 -3 12 -2 9 4 -6 10 -25 14 -25 6z"></path><path d="M567 922 c-38 -39 -45 -52 -27 -52 6 0 10 5 10 12 0 7 14 27 32 45
18 18 30 33 27 33 -3 0 -22 -17 -42 -38z"></path><path d="M425 910 c10 -11 20 -20 23 -20 3 0 -3 9 -13 20 -10 11 -20 20 -23
20 -3 0 3 -9 13 -20z"></path><path d="M477 864 c6 -15 23 -19 23 -5 0 5 -7 11 -14 14 -10 4 -13 1 -9 -9z"></path><path d="M568 873 c7 -3 16 -2 19 1 4 3 -2 6 -13 5 -11 0 -14 -3 -6 -6z"></path><path d="M418 858 c5 -5 16 -8 23 -6 8 3 3 7 -10 11 -17 4 -21 3 -13 -5z"></path><path d="M829 603 c-13 -17 -13 -17 6 -3 11 8 22 16 24 17 2 2 0 3 -6 3 -6 0
-17 -8 -24 -17z"></path><path d="M1037 603 c-13 -12 -7 -44 9 -50 25 -9 -40 -33 -92 -33 -23 0 -45 -4
-48 -9 -3 -5 14 -6 39 -3 28 3 50 0 60 -8 20 -17 20 -77 0 -83 -11 -4 -10 -4
2 -3 22 2 30 60 12 82 -10 13 -10 17 2 25 22 14 76 10 93 -7 9 -9 16 -11 16
-4 0 6 -14 17 -31 24 -24 10 -27 15 -15 19 17 7 22 42 7 51 -4 3 -6 -6 -3 -19
4 -22 1 -25 -23 -25 -24 0 -27 3 -23 25 6 27 5 29 -5 18z"></path><path d="M936 591 c-4 -5 3 -7 14 -4 23 6 26 13 6 13 -8 0 -17 -4 -20 -9z"></path><path d="M835 553 c15 -10 15 -13 4 -13 -8 0 -24 -7 -35 -16 -18 -14 -18 -15
5 -4 13 7 38 10 56 8 19 -2 31 0 29 4 -3 4 -13 8 -22 8 -13 0 -14 2 -3 9 9 6
3 10 -20 13 -29 5 -30 4 -14 -9z"></path><path d="M937 538 c2 -5 13 -8 23 -8 10 0 21 3 23 8 3 4 -8 7 -23 7 -15 0 -26
-3 -23 -7z"></path><path d="M894 450 c1 -26 6 -35 19 -36 11 -1 12 0 3 3 -8 2 -17 19 -19 36 -4
31 -4 31 -3 -3z"></path><path d="M803 433 c9 -2 25 -2 35 0 9 3 1 5 -18 5 -19 0 -27 -2 -17 -5z"></path><path d="M1083 433 c9 -2 25 -2 35 0 9 3 1 5 -18 5 -19 0 -27 -2 -17 -5z"></path></g></svg>